<svg xmlns="http://www.w3.org/2000/svg" width="64" height="64" viewBox="45.02 22.32 53.115 57.774"><style><![CDATA[.I{stroke-width:.5}.J{stroke-miterlimit:10}.K{stroke:#000}.L{fill:none}.M{fill:#f9c89a}.N{fill:#4f2e0e}.O{fill:#6d9758}.P{stroke-width:.1}]]></style><g transform="matrix(.159884 0 0 .159884 34.20631 17.28392)"><g class="K I"><ellipse cx="299.73" cy="339.813" rx="10.957" ry="5.14" fill="#331e09"/><g stroke-miterlimit="10"><path d="M217.706 319.453s4.363 18.614 4.944 24.142 11.635 8.145 12.798 1.745 5.236-22.105 5.236-22.105zm69.518 4.072s5.816 13.962 5.816 21.814 13.96 9.017 15.125 3.78 2.908-25.887 2.908-25.887z" class="M"/><path d="M234.77 336.03c-2.327.97-8.92 1.746-11.44.777s.195 9.113.97 12.217 8.92 2.52 8.92 2.52z" fill="#a15813"/></g><g class="N"><ellipse cx="220.979" cy="344.03" rx="4.872" ry="11.636"/><ellipse cx="236.249" cy="345.268" rx="5.018" ry="11.416"/></g><g stroke-miterlimit="10"><path d="M202.145 377.77L202 364.1c-.145-7.562 7.854-17.16 24.142-16.725s23.85 9.453 23.85 18.18-.728 15.707-1.6 17.452-42.6 2.327-44.2.728-2.036-5.964-2.036-5.964z" fill="#9e5613"/><path d="M202.145 389.55c-2.763-.727-3.78-3.636-3.927-6.398s2.182-5.1 3.927-5.382c1.308 1.746 3.926 2.474 6.253 2.9s32.14.727 35.63.436 4.363-2.326 4.946-3.197c2.473.87 3.5 3.488 3.635 5.96s-1.018 4.8-3.5 5.673-15.562 2.9-24.578 2.763-22.396-2.764-22.396-2.764z" class="N"/><path d="M310.638 342.43s-7.854 4.653-17.9 1.164c-6.544-.873-8.3-.873-8.145 2.327s1.02 11.926-2.035 15.56-6.255 13.1-1.6 17.452 71.988 3.927 74.607 3.2 4.218-5.382 4.218-5.382.87-9.9.58-15.124-7.562-14.834-19.925-14.397-17.45 9.162-22.978 10.325c-4.654-4.362-6.4-9.452-6.4-10.472s-.434-4.653-.434-4.653z" fill="#9e5613"/><path d="M295.585 358.355c4.363 0 7.5-1.963 7.854-6.472s-.727-6.98-3.928-7.198-7.126-.873-9.016-2.108-2.1-3.5-1.3-4.437 2.18-1.817 2.18-1.817l-.5-1.38s-7.2 2.763-6.544 10.47 4.508 12.943 11.27 12.943zm7.927-13.67c2.398.945 2.907 2.764 2.545 4.727s-1.164 7.636 2.98 7.417 5.236-8.3 4.873-11.998-2.764-7.272-3.854-8.145l-.218 1.1s.824.58.85 2.036-2.45 4.216-7.175 4.872z" class="N"/><path d="M317.473 357.556c-2.23 4.85-4.363 20.363-2.424 24.626" class="L"/><path d="M280.97 378.935s-3.346 2.036-3.054 5.234 2.763 3.928 6.4 4.8 38.103 1.9 44.356 2.18 27.632-1.3 31.268-2.763 6.836-7.854-.145-11.636c-2.765 3.055-4.945 3.637-9.454 4.22s-25.597.727-34.322.436l-31.995-.727c-2.18-.146-3.053-1.745-3.053-1.745z" class="N"/></g><g stroke-miterlimit="10" class="M"><path d="M265.554 115.412c-1.02 1.163-5.817 6.7-3.5 11.343s15.56 25.015 15.56 25.015 29.232-14.834 28.36-21.815-6.836-15.27-6.836-15.27zm71.9 105.63c.97-.97 3.1-5.72-2.618-7.466-4.556-.582-7.853 1.552-8.822 2.62s2.035 6.787 3.877 6.98 7.563-2.133 7.563-2.133z"/><path d="M341.42 226.28c.873-1.26 2.715-4.46-1.55-6.593s-9.988.098-11.442 2.327 2.424 7.175 3.2 7.175 9.792-2.9 9.792-2.9z"/><path d="M331.87 202.816l-5.38 9.454s3.005 3.927 4.168 8.87-.776 6.7.872 6.4 11.248-2.908 13.1-1.746 4.363 5.915 2.618 9.114-6.787 9.792-13.865 11.538-15.608-1.455-18.8-5.915-8.24-18.8-8.436-21.33 3.2-10.18 3.2-10.18l13.186-5.914z"/><path d="M325.035 211.542c2.423 1.357 6.303 4.363 7.27 9.502s-1.066 11.635-4.362 14.35"/><path d="M341.7 234.423s-2.328 3.298-7.758 2.52-5.04-7.562-2.424-9.404 6.786-3.296 9.6-2.812 4.167 1.745 4.167 1.745"/><path d="M334.343 228.897l2.617 4.848s-1.65 1.357-3.588.484-1.94-2.327-1.455-3.587 2.426-1.745 2.426-1.745z"/></g><g stroke-miterlimit="10" class="O"><path d="M314.466 123.992s10.764 5.672 12.5 12.653c5.235 1.745 11.392 9.428 10.8 15.052 5.623 2.327 8.12 5.587 8.12 9.27 3.104 2.715 7.744 9.678 2.12 19.76s-8.927 17.055-8.927 17.055l-22.495-1.944-1.94-6.8 10.47-19.392s-4.654-7.562-10.085-7.757c-1.356 5.817-2.714 14.155-2.714 14.155l.58 31.995-2.908 1.745-.582 7.175 7.175 14.93 2.52 2.327-6.594 10.278 1.553 2.9 8.92 21.912-.194 2.715 5.237 6.786-.195 2.908 2.9 7.175-5.624 12.798-3.5 6.98 3.297 10.083s-9.113 8.34-24.24 8.145-25.4-7.95-25.4-7.95l-2.908-1.744s3.297-19.002 2.52-29.668-3.104-26.76-3.104-30.444-.97-14.155-.97-14.155l-1.553 33.546c-.193 11.247-1.745 26.565-3.683 29.667s-4.072 4.072-4.072 4.072l2.132 3.686.582 4.458-2.327 2.9-4.267-1.165s-8.337 9.697-23.462 7.953-24.432-9.308-25.402-15.514c-3.5-2.52-3.878-4.266-3.878-4.266l9.9-11.44-5.624-3.296 4.654-8.34s3.297-8.145 3.878-10.86 2.327-9.307 2.327-9.307l-4.848.193 7.95-12.4-.58-8.533 14.542-30.83-.582-5.042-1.95-2.715-1.587-10.762 1.02-5.818s5.03-6.107 5.6-11.15-2.417-10.083-2.417-10.083l-33.98 22.3-4.87.388-13.973 6.205-3.303-1.358s-1.166-1.938-1.554-5.04-.001-17.064 1.162-19.003 3.877-1.94 3.877-1.94 4.46-.775 7.95-3.103 25.014-18.228 30.25-22.3 23.463-19.778 23.463-19.778 6.205-4.848 9.695-6 5.815-.97 5.815-.97l.195 16.677 15.706 17.8 17.065-10.23 13.574-12.604z"/><path d="M262.936 115.993l-2.327 1.455-10.036 16.724 10.9 1.02-3.927 7.562 20.65 10.907 1.744-2.036-14.98-18.47c-3.5-4.363-4.5-14.107-.582-16.725s-1.453-.437-1.453-.437"/><path d="M272.242 155.915l31.196-5.2-3.673-13.3 13.344 1.7 1.164-15.417-13.816-8.87-1.3-.145s3.346 4.363 3.5 9.744-4.798 9.453-8.87 12.943l-21.525 18.543zm21.668 10.688l20.652-6.834 2.182 11.052-19.343 12.362zm-22.297-10.325l.776 45.18-3.493 12.798-.2 12.4-.582 12.216 2.715 4.072 7.368-1.746m13.573-28.696l-11.44-.97.774 5.43 11.443 2.132z"/><path d="M310.008 209.797l-10.084 2.52 1.357 6.786 8.145-2.132m-51.386-6.786l8.726.775.386 6.98-10.276-.97zm-21.525-1.745l12.604.388-.582 7.174-11.44-1.745m4.848-55.07l-4.848 8.726 21.135 16.482 6.4-15.707zm97.342 43.483s0-6.254 1.9-8.726c-4.654-2.037-15.852-6.544-21.96-5.817-2.9 3.5-8.094 13.67-6.302 19.924 6.737-2.327 26.37-5.38 26.37-5.38zm-147.032-37.085l6.7 9.744 4.218 10.908s-2.618 3.635-5.526 4.944-13.283 5.624-13.283 5.624l-3.296-1.358s3.054-1.938 3.5-13-2.326-12.507-2.326-12.507l6.544-2.473zm98.75 102.53s4.217 14.688 10.326 24.143c3.053-2.035 24.287-3.5 29.426-3.345"/></g><g stroke-miterlimit="10"><path d="M209.174 293.566c3.878 1.018 20.312 3.344 20.312 3.344s8.872 2.182 13.67.146c2.472-5.527 9.9-31.123 9.9-31.123s-7.126-8.3-13.525-9.598-16.433-4.8-16.433-4.8" class="L"/><path d="M220.033 265.062c3.5-.437 20.796 0 30.686 7.125" class="O"/><path d="M214.797 296.862l2.764 9.647" class="L"/><path d="M209.416 312.472c6.544 4.653 23.706 13.963 46.83 3.637" class="O"/><path d="M276.025 319.308c7.997 3.198 27.775 4.07 38.103-1.745" class="L"/></g><g stroke-miterlimit="10" class="O"><path d="M310.056 315.963c10.324 3.345 25.306 3.927 27.05.3S321.64 308.7 321.64 308.7"/><path d="M302.202 309.418c12.65 1.9 26.905-.582 26.905-4.945s-19.488-3.78-19.488-3.78m3.926-53.666c4.22 5.1 7.418 9.9 11.054 11.054-8.726 1.454-29.668 5.817-32.868 9.45-1.453-3.344-2.617-5.1-4.507-6.398 3.78-5.1 26.32-14.107 26.32-14.107z"/></g><path d="M183.093 172.7c-5.236-.582-15.998-2.763-19.924-12.943-2.472-5.1-6.544-5.962-8.435-7.272-2.473-2.18-5.963-3.78-10.908-3.054s-12.798-.437-17.743-3.345-10.18-1.018-11.925 1.455-1.9 5.962-.146 7.853l2.9 3.055s-6.835 1.018-7.417 6.108 3.054 7.562 5.38 8.58 4.363 1.164 4.363 1.164-2.617 3.5-.727 6.834 6.545 4.8 6.545 4.8 2.18 3.054 4.508 3.5 16.434 1.164 16.434 1.164 5.816-2.18 9.162-2.472 11.198-.437 13.816.727 14.107 1.454 14.107 1.454 1.454-6.254 1.3-9.6-1.308-8-1.308-8z" class="J M"/></g><linearGradient id="A" gradientUnits="userSpaceOnUse" x1="103.3" y1="357.36" x2="179.524" y2="357.36"><stop offset="0" stop-color="#442b1f"/><stop offset="1" stop-color="#442b1f"/></linearGradient><path d="M162.055 327.5c-7.95.775-50.222-.582-58.754-5.624.582 29.087 8.726 54.876 13.96 60.5s21.524 10.47 38.395 10.47 27.212-5.067 22.88-11.828c-12.8-19.973-16.483-53.52-16.483-53.52z" fill="url(#A)"/><linearGradient id="B" gradientUnits="userSpaceOnUse" x1="131.029" y1="233.936" x2="143.5" y2="233.936"><stop offset="0" stop-color="#c8b091"/><stop offset=".199" stop-color="#c5a788"/><stop offset=".529" stop-color="#bc8e6e"/><stop offset=".948" stop-color="#ad6745"/><stop offset=".994" stop-color="#ab6240"/></linearGradient><path d="M143.5 363.373V104.5h-12.47l.313 222.514c0 11.053.314 19.196 1.57 23.852s5.293 10.762 7.177 11.634 3.412.873 3.412.873z" fill="url(#B)" class="J K"/><linearGradient id="C" gradientUnits="userSpaceOnUse" x1="131.998" y1="341.231" x2="142.76" y2="341.231"><stop offset="0" stop-color="#88786f"/><stop offset=".105" stop-color="#806f66"/><stop offset=".281" stop-color="#6b574c"/><stop offset=".503" stop-color="#493023"/><stop offset=".622" stop-color="#34180a"/><stop offset="1" stop-color="#3e2316"/></linearGradient><path d="M142.663 332h-10.665s0 15.88 1.357 18.207l9.405.253z" fill="url(#C)"/><g stroke-miterlimit="10" class="I K M"><path d="M127.345 163.938s-3.2 5.526-3.006 7.27 6.206.486 6.593-1.745-3.587-5.526-3.587-5.526zm3.1 25.8c2.62.145 7.417.437 9.163-1.892s5.962-4.508 5.962-7.125-.727-4.072-3.344-6.108-15.416 2.9-16.144 4.217-1.745 4.945-1.308 5.963 1.308 2.9 2.617 3.78 3.054 1.164 3.054 1.164z"/><path d="M138 178.965l3.5 2.472s3.5-2.763.292-4.8-4.072 1.018-4.072 1.018z"/><path d="M123.078 185.267c1.745.485 1.553 1.65 6.012.485s9.5-5.042 10.956-8.532-6.7-9.2-10.083-8.435-9.2 3.587-10.714 5.526-1.793 5.72-.824 7.174 4.653 3.782 4.653 3.782zm15.802-27.05c-1.066-1.55-2.132-4.654-3.5-5.527s-5.816-4.363-7.174-5.235-5.527-4.072-9.114-3.103-6.883 3.006-6.4 7.853 3.587 5.333 5.235 6.98 3.976 3.976 5.333 4.75 5.235 2.618 8.144 2.9 5.72-1.552 6.787-3.394.678-5.235.678-5.235z"/><path d="M133.162 155.3l-4.944 8.144s5.396 2 7.368-.97c2.714-4.072-2.424-7.174-2.424-7.174z"/><path d="M146.008 150.897c-4.364 1.3-15.27 11.343-17.452 16.725s-1.454 10.035 2.9 11.78 10.762-2.18 12.507-5.38 4.508-13.525 4.508-13.525m-17.054 8.3l9.792 4.944s-1.455 2.714-4.46 3.103-6.398-2.036-6.496-4.072 1.163-3.975 1.163-3.975zm14.93-.873c.97 1.745 6.302 6.787 9.2 7.078m-.862 13.185c2.036-.484 3.394-1.648 4.654-2.618"/></g><linearGradient id="D" gradientUnits="userSpaceOnUse" x1="277.188" y1="161.441" x2="284.604" y2="161.441"><stop offset="0" stop-color="#f8fb9b"/><stop offset=".126" stop-color="#f5f892"/><stop offset=".334" stop-color="#efef78"/><stop offset=".601" stop-color="#e3e14f"/><stop offset=".911" stop-color="#d4ce16"/><stop offset="1" stop-color="#cfc804"/></linearGradient><g class="K"><circle cx="280.896" cy="161.441" r="3.708" fill="url(#D)" class="I"/><circle cx="280.871" cy="161.417" r="2.908" class="L P"/></g><linearGradient id="E" gradientUnits="userSpaceOnUse" x1="276.025" y1="182.383" x2="283.44" y2="182.383"><stop offset="0" stop-color="#f8fb9b"/><stop offset=".126" stop-color="#f5f892"/><stop offset=".334" stop-color="#efef78"/><stop offset=".601" stop-color="#e3e14f"/><stop offset=".911" stop-color="#d4ce16"/><stop offset="1" stop-color="#cfc804"/></linearGradient><g class="K"><circle cx="279.733" cy="182.383" r="3.708" fill="url(#E)" class="I"/><circle cx="279.708" cy="182.358" r="2.909" class="L P"/></g><linearGradient id="F" gradientUnits="userSpaceOnUse" x1="274.86" y1="203.325" x2="282.278" y2="203.325"><stop offset="0" stop-color="#f8fb9b"/><stop offset=".126" stop-color="#f5f892"/><stop offset=".334" stop-color="#efef78"/><stop offset=".601" stop-color="#e3e14f"/><stop offset=".911" stop-color="#d4ce16"/><stop offset="1" stop-color="#cfc804"/></linearGradient><g class="K"><circle cx="278.569" cy="203.325" r="3.709" fill="url(#F)" class="I"/><circle cx="278.545" cy="203.301" r="2.909" class="L P"/><path d="M251.542 77.454l-3.2-.873s-1.745.388-1.552 1.262 1.455 1.94 1.357 3.5-.3 4.556.875 6.496 3.975 4.848 5.43 5.623 1.842-.388 1.842-.388 1.356 13.96 1.746 15.416 2.424 5.042 5.72 7.854 8.92 9.2 11.538 11.15 11.246 3.588 14.93-.194 11.635-12.507 12.507-13.768 3.393-4.266 3.297-5.43-.484-13.574-.484-14.06c.58.194 1.84-.484 2.52-1.066s4.945-5.236 4.85-7.272-1.358-7.66-.872-8.047 1.162-1.94.3-2.327-6.012 3.393-6.012 3.393-1.042-13.258-5.815-16.676-43.438-5.817-45.764-2.715-3.204 18.132-3.204 18.132z" class="I J M"/></g><path d="M258 88.797l.457 4.75-1.132-2.472-1.68-6.666-5.053-7.356L250 66.4v-2.036l14.006-4.557-4.05 6.1-3.092 9.598-.158 4.46L258 82.302z"/><path d="M309.328 71.5c10.035 6.544-3.054 4.654-13.815 1.018s-32.286-9.9-37.232-10.035 32.724-3.055 38.54-1.164 12.507 10.18 12.507 10.18z" fill="#161616" class="I J K"/><linearGradient id="G" gradientUnits="userSpaceOnUse" x1="280.96" y1="69.02" x2="280.96" y2="31.748"><stop offset=".372" stop-color="#1d2739"/><stop offset=".994" stop-color="#1d2739"/></linearGradient><g stroke-miterlimit="10" class="I K"><path d="M247.568 61.263c-12.4-6-12.4-13.767.776-22.105s37.23-8.726 48.476-5.624 28.698 14.155 26.566 25.015c-2.132 8.337-11.83 10.47-11.83 10.47z" fill="url(#G)"/><path d="M248.684 65.383l-1.456-6.544c17.9-10.617 50.9-10.908 65.735 7.126-.437 1.308-2.326 4.508-3.636 5.526-25.45-18.906-60.643-6.108-60.643-6.108z" fill="#03468b"/></g><path d="M275.007 56.657l6.688.873-.3 1.744-11.925-1.017 8.727-7.854-5.964-.3.147-1.9 10.906 1.3zm17.523-5.6c3.272 1.9 4.364 4.944 3.2 7.562s-5.382 2.835-7.198 2.254-6.037-3.345-4.072-7.708c1.308-2.544 4.798-4 8.07-2.108zm-5.94 3.288c-1.205 2.677 1.383 4.372 2.5 4.73s3.702.222 4.416-1.382.046-3.48-1.964-4.64-4.15-.268-4.95 1.294zm16.982-.007c3.012 1.603 4.454 4.764 3.977 7.76s-3.88 3.804-5.472 3.42-5.53-2.804-4.714-7.798c.6-2.936 3.196-4.987 6.2-3.382zm-4.256 4.37c-.504 3.065 1.918 4.55 2.9 4.786s3.063-.262 3.357-2.098-.6-3.777-2.44-4.763-3.435.273-3.808 2.075z" fill="#fff"/><path d="M303.187 73.48l1.277 6.787-1.8 4.945.336 5.43v2.8l1.6-2.327.663-8.144 3.045-5.526.262-3.2z"/><g stroke-miterlimit="10" class="K L"><path d="M300.7 81.624c-.97-.583-3.394-2.9-4.557-2.9s-4.364.97-5.817 1.066-5.914 1.84-6.303 2.23m-9.986.195c-.97 0-3.878-.97-4.46-1.26s-3.5-.194-3.5-.194l-2.23-1.455-3.006 2.812"/><path d="M275.782 85.016c.68.388 2.23 2.52 2.135 3.684s-1.747 12.313-1.553 12.604 3.78.872 4.267.485m2.617-1.163c.68-.097 1.552-.3 2.23.582M273.65 86.76c-1.647-3.5-8.34-3.5-10.86.098m23.367.194c.774-4.265 10.567-5.138 12.7-.872" class="I"/></g><ellipse cx="268.414" cy="86.713" rx="3.006" ry="2.375"/><ellipse cx="292.119" cy="85.744" rx="3.151" ry="2.472"/><g stroke-miterlimit="10" class="I K"><path d="M269.867 107.995c4.655 5.914 18.52 5.72 21.695-.97-1.067.3-2.752.92-2.752.92s-5.758.243-7.018.922c-.87 0-2.035.193-2.035.193s-5.72-.776-6.594-.193-3.296-.873-3.296-.873z" fill="#d8d8d8"/><path d="M288.3 112.648c-3.104 3.684-11.054 3.587-14.253.775" class="L"/></g><path d="M289.017 85.355l3.586.437-3.054 1.357c-.58-.58-.532-1.794-.532-1.794zm-23.27 1.165l3.586.437-3.053 1.358c-.582-.583-.533-1.795-.533-1.795z" fill="#fcfcfc"/><path d="M309.9 79.2c-.653 1.163-2.544 3.563-2.7 4.726s.8 4.145.728 4.727m1.162-2.183c-.146-.8-.655-2.98-1.455-3.418m-58.08-3.926c.728 1.02 4.436 4.072 4.58 5.3s-.8 3.127-.5 4.217 1.02 2.763 1.02 2.763m-2.4-3.854c-.22-1.163.072-3.7 1.162-4" class="I J K L"/></g></svg>